# xmcd
#
# Track frame offsets:
#	183
#	13805
#	27228
#	38885
#	49420
#	59710
#	72920
#	84173
#	94858
#	108945
#	120765
#	134915
#	148035
#	162805
#	174290
#	186340
#	196118
#	208233
#	221990
#	234813
#	246270
#	257023
#	269130
#	281203
#	292473
#
# Disc length: 4021 seconds
#
# Revision: 1
# Processed by: cddbd v1.4PL0 Copyright (c) Steve Scherf et al.
# Submitted via: CDmax 2.0
#
DISCID=8d0fb319
DTITLE=Blind Willie McTell and Curley Weaver - Postwar Recordings, 1949-50
DYEAR=1949
DGENRE=Blues
TTITLE0=My Baby's Gone
TTITLE1=Ticket Agent
TTITLE2=Don't Forget (It)
TTITLE3=A To Z Blues
TTITLE4=Good Little Thing
TTITLE5=You Can't Get Stuff No More
TTITLE6=Love Changin' Blues
TTITLE7=Savannah Mama
TTITLE8=Talkin' To You Mama
TTITLE9=East St. Louis
TTITLE10=Wee Midnight Hours
TTITLE11=She Don't Treat Me Good No More
TTITLE12=Brownskin Women
TTITLE13=I Keep On Drinking
TTITLE14=Pal Of Mine - (take 1)
TTITLE15=Pal Of Mine - (take 2)
TTITLE16=Honey It Must Be Love
TTITLE17=Sending Up My Timber - (take 1)
TTITLE18=Sending Up My Timber - (take 2)
TTITLE19=Lord Have Mercy If You Please
TTITLE20=Trying To Get Home (Climbing High Mountains)
TTITLE21=It's My Desire
TTITLE22=Hide Me In Thy Bosom
TTITLE23=Some Rainy Day
TTITLE24=Trixie
EXTD=
EXTT0=
EXTT1=
EXTT2=
EXTT3=
EXTT4=
EXTT5=
EXTT6=
EXTT7=
EXTT8=
EXTT9=
EXTT10=
EXTT11=
EXTT12=
EXTT13=
EXTT14=
EXTT15=
EXTT16=
EXTT17=
EXTT18=
EXTT19=
EXTT20=
EXTT21=
EXTT22=
EXTT23=
EXTT24=
PLAYORDER=
